<?xml version="1.0" standalone="no"?>
<!DOCTYPE svg PUBLIC "-//W3C//DTD SVG 20010904//EN"
 "http://www.w3.org/TR/2001/REC-SVG-20010904/DTD/svg10.dtd">
<svg version="1.0" xmlns="http://www.w3.org/2000/svg"
 width="360.000000pt" height="360.000000pt" viewBox="0 0 360.000000 360.000000"
 preserveAspectRatio="xMidYMid meet">

<g transform="translate(0.000000,360.000000) scale(0.100000,-0.100000)"
fill="#000000" stroke="none">
<path d="M2313 3128 c-9 -12 -102 -245 -125 -315 -14 -41 -5 -63 26 -63 22 0
30 15 91 169 37 92 65 179 63 192 -3 27 -39 38 -55 17z"/>
<path d="M1582 3118 c-7 -7 -12 -17 -12 -23 0 -7 33 -88 74 -181 71 -162 75
-169 102 -169 26 0 29 3 28 30 -1 17 -24 82 -53 145 -29 63 -60 133 -68 155
-23 55 -45 69 -71 43z"/>
<path d="M1960 3111 c-15 -28 -13 -294 2 -309 15 -15 45 -16 54 -1 10 16 12
281 3 307 -10 27 -44 29 -59 3z"/>
<path d="M1340 2855 c-6 -8 -10 -18 -8 -24 1 -5 49 -57 105 -116 80 -83 107
-106 125 -103 15 2 24 11 26 27 3 19 -17 45 -99 127 -57 57 -111 104 -120 104
-9 0 -22 -7 -29 -15z"/>
<path d="M2492 2767 c-83 -83 -103 -109 -100 -128 7 -51 39 -34 153 81 93 93
108 113 99 128 -24 37 -47 25 -152 -81z"/>
<path d="M1860 2696 c-133 -37 -253 -136 -313 -255 -45 -90 -61 -166 -55 -266
l5 -80 -93 -1 c-87 -1 -99 -4 -167 -37 -141 -70 -235 -207 -245 -353 l-5 -74
-48 0 c-98 0 -201 -60 -257 -148 -106 -168 -38 -390 146 -475 47 -22 51 -22
771 -25 642 -2 730 -1 779 14 141 41 234 161 235 304 1 101 -25 164 -97 236
-73 72 -126 94 -231 94 l-72 0 -10 43 c-6 23 -13 49 -17 57 -4 11 9 23 48 43
73 39 169 140 206 219 67 144 65 310 -6 450 -57 112 -193 221 -318 254 -63 17
-195 17 -256 0z m236 -70 c214 -57 353 -271 315 -485 -7 -37 -22 -90 -35 -117
-32 -68 -115 -156 -180 -190 l-55 -29 -33 32 c-66 62 -112 78 -227 78 l-105 0
-45 49 c-25 27 -69 62 -98 78 -47 27 -52 33 -62 79 -31 145 16 296 124 398
112 106 259 145 401 107z m-520 -636 c55 -27 88 -57 161 -144 21 -25 22 -25
63 -11 168 59 340 -63 340 -242 0 -49 18 -60 77 -44 123 34 241 -18 302 -134
31 -59 29 -155 -5 -224 -33 -65 -99 -116 -170 -131 -34 -7 -281 -10 -750 -8
l-699 3 -47 23 c-63 31 -115 93 -135 161 -26 90 -1 181 68 250 54 54 85 66
181 66 48 0 90 4 94 8 4 3 7 48 8 99 1 77 6 103 28 149 88 191 300 269 484
179z"/>
<path d="M1972 2534 c2 -15 15 -20 60 -26 70 -9 122 -35 169 -85 48 -50 79
-112 86 -174 6 -53 18 -68 36 -50 14 14 -6 118 -33 171 -25 48 -111 127 -166
152 -25 11 -70 22 -101 25 -50 6 -55 4 -51 -13z"/>
<path d="M2695 2560 c-176 -78 -196 -91 -179 -118 6 -9 18 -18 26 -20 9 -2 91
31 184 72 161 71 169 76 169 103 0 21 -5 29 -20 30 -11 2 -92 -29 -180 -67z"/>
<path d="M1070 2581 c-5 -11 -7 -26 -4 -34 5 -14 330 -147 359 -147 22 0 37
34 22 52 -11 15 -333 148 -356 148 -6 0 -15 -9 -21 -19z"/>
<path d="M1086 2234 c-9 -8 -16 -19 -16 -24 0 -5 7 -16 16 -24 13 -13 42 -16
158 -16 97 0 146 4 154 12 17 17 15 55 -4 62 -9 3 -78 6 -154 6 -113 0 -142
-3 -154 -16z"/>
<path d="M2576 2234 c-9 -8 -16 -19 -16 -24 0 -5 7 -16 16 -24 12 -13 41 -16
154 -16 76 0 145 3 154 6 9 4 16 18 16 34 0 16 -7 30 -16 34 -9 3 -78 6 -154
6 -113 0 -142 -3 -154 -16z"/>
<path d="M2529 2004 c-9 -11 -10 -20 -2 -32 12 -21 347 -154 367 -146 21 8 26
41 7 57 -19 16 -323 137 -344 137 -8 0 -20 -7 -28 -16z"/>
<path d="M2397 1803 c-4 -3 -7 -16 -7 -27 0 -25 197 -226 222 -226 9 0 22 10
29 21 10 20 1 32 -97 130 -100 100 -129 121 -147 102z"/>
</g>
</svg>
